<svg xmlns="http://www.w3.org/2000/svg" width="270" height="80" viewBox="0 0 270 80"><defs><style>.cls-1{fill-rule:evenodd}</style></defs><path class="cls-1" d="M260.39 80H9.458A9.483 9.483 0 0 1 0 70.53V9.45A9.466 9.466 0 0 1 9.458 0H260.39A9.593 9.593 0 0 1 270 9.45v61.08a9.61 9.61 0 0 1-9.61 9.47zM60.256 39.57a11.6 11.6 0 0 1 5.522-9.73 11.876 11.876 0 0 0-9.352-5.06c-3.934-.41-7.75 2.36-9.754 2.36-2.044 0-5.13-2.32-8.456-2.25a12.475 12.475 0 0 0-10.48 6.39c-4.532 7.85-1.152 19.38 3.19 25.72 2.172 3.11 4.71 6.58 8.032 6.45 3.25-.13 4.464-2.07 8.386-2.07 3.886 0 5.026 2.07 8.414 2 3.488-.06 5.684-3.12 7.78-6.26a25.672 25.672 0 0 0 3.558-7.24 11.224 11.224 0 0 1-6.84-10.31zm-6.4-18.96a11.4 11.4 0 0 0 2.612-8.18 11.655 11.655 0 0 0-7.516 3.89 10.87 10.87 0 0 0-2.68 7.88 9.618 9.618 0 0 0 7.584-3.59zm53.434 42.4h-4.54l-2.49-7.82h-8.65l-2.37 7.82h-4.42l8.57-26.62h5.29zm-7.78-11.1l-2.25-6.95c-.24-.71-.68-2.38-1.34-5.01h-.08c-.26 1.13-.69 2.8-1.27 5.01l-2.21 6.95h7.15zm29.81 1.27a10.9 10.9 0 0 1-2.64 7.73 7.725 7.725 0 0 1-5.89 2.53 5.906 5.906 0 0 1-5.45-2.72h-.08v10.11H111v-20.7q0-3.075-.16-6.31h3.75l.24 3.04h.08a7.577 7.577 0 0 1 12.14-.75 10.534 10.534 0 0 1 2.27 7.07zm-4.34.15a7.921 7.921 0 0 0-1.26-4.62 4.384 4.384 0 0 0-3.72-1.89 4.46 4.46 0 0 0-2.86 1.04 4.948 4.948 0 0 0-1.68 2.75 5.628 5.628 0 0 0-.19 1.3v3.2a5.1 5.1 0 0 0 1.28 3.53 4.248 4.248 0 0 0 3.34 1.45 4.374 4.374 0 0 0 3.75-1.86 8.216 8.216 0 0 0 1.34-4.9zm26.42-.15a10.861 10.861 0 0 1-2.65 7.73 7.719 7.719 0 0 1-5.88 2.53 5.884 5.884 0 0 1-5.45-2.72h-.08v10.11h-4.26v-20.7c0-2.05-.06-4.15-.16-6.31h3.75l.24 3.04h.08a7.075 7.075 0 0 1 6.47-3.44 7.149 7.149 0 0 1 5.67 2.69 10.586 10.586 0 0 1 2.27 7.07zm-4.35.15a7.921 7.921 0 0 0-1.26-4.62 4.366 4.366 0 0 0-3.71-1.89 4.467 4.467 0 0 0-2.87 1.04 4.878 4.878 0 0 0-1.67 2.75 5.728 5.728 0 0 0-.2 1.3v3.2a5.145 5.145 0 0 0 1.28 3.53 4.28 4.28 0 0 0 3.34 1.45 4.349 4.349 0 0 0 3.75-1.86 8.147 8.147 0 0 0 1.34-4.9zm29.03 2.21a7.084 7.084 0 0 1-2.37 5.53c-1.73 1.56-4.14 2.33-7.25 2.33a12.617 12.617 0 0 1-6.89-1.66l.98-3.55a11.743 11.743 0 0 0 6.17 1.7 5.8 5.8 0 0 0 3.75-1.09 3.524 3.524 0 0 0 1.34-2.91 3.7 3.7 0 0 0-1.1-2.72 10.219 10.219 0 0 0-3.68-2.06q-6.99-2.61-6.98-7.63a6.728 6.728 0 0 1 2.45-5.38 9.63 9.63 0 0 1 6.51-2.1 12.807 12.807 0 0 1 6.04 1.27l-1.06 3.47a10.563 10.563 0 0 0-5.1-1.22 5.179 5.179 0 0 0-3.51 1.1 3.167 3.167 0 0 0-1.07 2.41 3.24 3.24 0 0 0 1.23 2.61 13.68 13.68 0 0 0 3.87 2.05 13.151 13.151 0 0 1 5.05 3.24 6.74 6.74 0 0 1 1.62 4.61zm14.1-8.52h-4.7v9.31c0 2.37.82 3.56 2.48 3.56a7.675 7.675 0 0 0 1.9-.2l.12 3.24a9.79 9.79 0 0 1-3.32.47 5.144 5.144 0 0 1-3.95-1.54q-1.425-1.545-1.42-5.17v-9.68h-2.8v-3.2h2.8V40.3l4.19-1.27v4.78h4.7v3.21zm21.2 6.23a10.5 10.5 0 0 1-2.53 7.27 9.014 9.014 0 0 1-7.03 2.92 8.58 8.58 0 0 1-6.73-2.8 10.228 10.228 0 0 1-2.51-7.07 10.4 10.4 0 0 1 2.59-7.3 8.945 8.945 0 0 1 6.97-2.85 8.774 8.774 0 0 1 6.79 2.81 10.047 10.047 0 0 1 2.45 7.02zm-4.42.14a8.568 8.568 0 0 0-1.15-4.55 4.21 4.21 0 0 0-3.82-2.3 4.269 4.269 0 0 0-3.91 2.3 8.762 8.762 0 0 0-1.15 4.63 8.568 8.568 0 0 0 1.15 4.55 4.355 4.355 0 0 0 7.7-.04 8.706 8.706 0 0 0 1.18-4.59zm18.28-5.82a7.182 7.182 0 0 0-1.34-.12 4.027 4.027 0 0 0-3.48 1.7 6.379 6.379 0 0 0-1.06 3.79v10.07h-4.27l.04-13.15c0-2.21-.05-4.23-.16-6.04h3.72l.15 3.67h.12a6.574 6.574 0 0 1 2.13-3.04 5.146 5.146 0 0 1 3.09-1.03 6.732 6.732 0 0 1 1.06.08v4.07zm19.07 4.93a10.614 10.614 0 0 1-.15 1.94h-12.8a5.56 5.56 0 0 0 1.86 4.34 6.3 6.3 0 0 0 4.18 1.35 14.258 14.258 0 0 0 5.18-.91l.67 2.96a16.062 16.062 0 0 1-6.44 1.18 9.322 9.322 0 0 1-7.01-2.62 9.722 9.722 0 0 1-2.54-7.05 11.038 11.038 0 0 1 2.37-7.23 8.158 8.158 0 0 1 6.71-3.07 7.152 7.152 0 0 1 6.28 3.07 10.358 10.358 0 0 1 1.69 6.04zm-4.06-1.1a5.832 5.832 0 0 0-.83-3.28 3.72 3.72 0 0 0-3.4-1.78 4.037 4.037 0 0 0-3.39 1.74 6.371 6.371 0 0 0-1.27 3.32h8.89zM98.1 20.02a6.56 6.56 0 0 1-2.12 5.31 8.385 8.385 0 0 1-5.56 1.65 27 27 0 0 1-3.07-.15V13.96a22.743 22.743 0 0 1 3.61-.27 7.753 7.753 0 0 1 5.18 1.5 6 6 0 0 1 1.96 4.83zm-2.21.06a4.257 4.257 0 0 0-4.75-4.74 8.981 8.981 0 0 0-1.69.14v9.78a11.508 11.508 0 0 0 1.41.05 4.964 4.964 0 0 0 3.72-1.33 5.392 5.392 0 0 0 1.31-3.9zm13.93 1.99a5.2 5.2 0 0 1-1.24 3.57 4.439 4.439 0 0 1-3.46 1.44 4.236 4.236 0 0 1-3.31-1.38 5.01 5.01 0 0 1-1.23-3.47 5.163 5.163 0 0 1 1.27-3.59 4.411 4.411 0 0 1 3.43-1.39 4.322 4.322 0 0 1 3.34 1.37 4.982 4.982 0 0 1 1.2 3.45zm-2.18.07a4.235 4.235 0 0 0-.56-2.24 2.06 2.06 0 0 0-1.88-1.12 2.1 2.1 0 0 0-1.92 1.12 4.84 4.84 0 0 0 0 4.52 2.137 2.137 0 0 0 3.78-.02 4.247 4.247 0 0 0 .58-2.26zm17.89-4.7l-2.95 9.43h-1.92l-1.22-4.1c-.31-1.02-.56-2.04-.76-3.04h-.04a21.115 21.115 0 0 1-.76 3.04l-1.29 4.1h-1.95l-2.77-9.43h2.15l1.07 4.48c.26 1.06.47 2.07.64 3.03h.04a29.6 29.6 0 0 1 .78-3.01l1.33-4.5h1.71l1.28 4.4c.31 1.08.57 2.11.76 3.11h.06a27.822 27.822 0 0 1 .64-3.11l1.14-4.4h2.06zm10.87 9.43h-2.1v-5.4c0-1.67-.63-2.5-1.9-2.5a1.884 1.884 0 0 0-1.51.69 2.387 2.387 0 0 0-.59 1.61v5.59h-2.09v-6.73c0-.83-.03-1.72-.08-2.7h1.84l.1 1.48h.06a2.971 2.971 0 0 1 1.09-1.14 3.53 3.53 0 0 1 1.9-.53 2.993 2.993 0 0 1 2.19.85 4.175 4.175 0 0 1 1.09 3.13v5.65zm5.78 0h-2.1V13.11h2.1v13.76zm12.34-4.8a5.163 5.163 0 0 1-1.25 3.57 4.418 4.418 0 0 1-3.45 1.44 4.208 4.208 0 0 1-3.31-1.38 5.01 5.01 0 0 1-1.23-3.47 5.117 5.117 0 0 1 1.27-3.59 4.4 4.4 0 0 1 3.42-1.39 4.293 4.293 0 0 1 3.34 1.37 4.988 4.988 0 0 1 1.21 3.45zm-2.18.07a4.329 4.329 0 0 0-.56-2.24 2.07 2.07 0 0 0-1.88-1.12 2.1 2.1 0 0 0-1.92 1.12 4.308 4.308 0 0 0-.56 2.28 4.211 4.211 0 0 0 .56 2.24 2.137 2.137 0 0 0 3.78-.02 4.247 4.247 0 0 0 .58-2.26zm12.32 4.73h-1.88l-.16-1.09h-.06a3.208 3.208 0 0 1-2.75 1.3 2.861 2.861 0 0 1-2.15-.85 2.7 2.7 0 0 1-.74-1.92 2.921 2.921 0 0 1 1.45-2.64 7.416 7.416 0 0 1 4.06-.89v-.18a1.688 1.688 0 0 0-1.96-1.86 4.3 4.3 0 0 0-2.45.7l-.43-1.38a6.073 6.073 0 0 1 3.23-.81q3.705 0 3.7 3.9v3.47a14.726 14.726 0 0 0 .14 2.25zm-2.18-3.24v-1.46c-2.31-.04-3.46.6-3.46 1.9a1.437 1.437 0 0 0 .4 1.11 1.485 1.485 0 0 0 1.02.37 2.111 2.111 0 0 0 1.28-.44 1.756 1.756 0 0 0 .73-1.12 1.863 1.863 0 0 0 .03-.36zm14.09 3.24h-1.86l-.1-1.52h-.06a3.125 3.125 0 0 1-3.02 1.73 3.566 3.566 0 0 1-2.84-1.34 5.205 5.205 0 0 1-1.12-3.47 5.51 5.51 0 0 1 1.22-3.71 3.76 3.76 0 0 1 2.91-1.32 2.842 2.842 0 0 1 2.66 1.28h.04v-5.41h2.1v11.22c0 .91.02 1.76.07 2.54zm-2.17-3.98v-1.57a2.907 2.907 0 0 0-.06-.66 2.349 2.349 0 0 0-.76-1.27 2.074 2.074 0 0 0-1.4-.52 2.134 2.134 0 0 0-1.84.94 3.946 3.946 0 0 0-.68 2.38 3.725 3.725 0 0 0 .65 2.27 2.144 2.144 0 0 0 1.83.93 2.045 2.045 0 0 0 1.66-.77 2.621 2.621 0 0 0 .6-1.73zm20.1-.82a5.163 5.163 0 0 1-1.25 3.57 4.4 4.4 0 0 1-3.45 1.44 4.236 4.236 0 0 1-3.31-1.38 5.01 5.01 0 0 1-1.23-3.47 5.117 5.117 0 0 1 1.27-3.59 4.411 4.411 0 0 1 3.43-1.39 4.286 4.286 0 0 1 3.33 1.37 4.988 4.988 0 0 1 1.21 3.45zm-2.18.07a4.235 4.235 0 0 0-.56-2.24 2.06 2.06 0 0 0-1.88-1.12 2.1 2.1 0 0 0-1.92 1.12 4.308 4.308 0 0 0-.56 2.28 4.211 4.211 0 0 0 .56 2.24 2.137 2.137 0 0 0 3.78-.02 4.247 4.247 0 0 0 .58-2.26zm13.45 4.73h-2.1v-5.4c0-1.67-.63-2.5-1.9-2.5a1.884 1.884 0 0 0-1.51.69 2.379 2.379 0 0 0-.58 1.61v5.59h-2.1v-6.73c0-.83-.03-1.72-.08-2.7h1.84l.1 1.48h.06a3.046 3.046 0 0 1 1.09-1.14 3.555 3.555 0 0 1 1.9-.53 2.993 2.993 0 0 1 2.19.85 4.136 4.136 0 0 1 1.09 3.13v5.65zm14.1-7.86h-2.31v4.58q0 1.74 1.23 1.74a4.062 4.062 0 0 0 .93-.09l.05 1.59a4.8 4.8 0 0 1-1.62.23 2.48 2.48 0 0 1-1.94-.76 3.675 3.675 0 0 1-.7-2.54v-4.75h-1.38v-1.57h1.38v-1.73l2.05-.62v2.35h2.31v1.57zm11.1 7.86h-2.1v-5.36c0-1.69-.63-2.54-1.9-2.54a2.007 2.007 0 0 0-2 1.47 2.724 2.724 0 0 0-.1.75v5.67h-2.09V13.11h2.09v5.68h.04a3.185 3.185 0 0 1 2.84-1.55 2.925 2.925 0 0 1 2.15.86 4.284 4.284 0 0 1 1.07 3.16v5.61zm11.44-5.16a5.194 5.194 0 0 1-.07.95h-6.29a2.754 2.754 0 0 0 .91 2.13 3.124 3.124 0 0 0 2.06.66 6.877 6.877 0 0 0 2.54-.45l.33 1.46a7.9 7.9 0 0 1-3.17.58 4.562 4.562 0 0 1-3.44-1.29 4.769 4.769 0 0 1-1.25-3.46 5.385 5.385 0 0 1 1.17-3.55 4 4 0 0 1 3.29-1.51 3.486 3.486 0 0 1 3.08 1.51 4.981 4.981 0 0 1 .84 2.97zm-2-.55a2.84 2.84 0 0 0-.4-1.61 1.841 1.841 0 0 0-1.67-.87 2 2 0 0 0-1.67.85 3.205 3.205 0 0 0-.62 1.63h4.36z"/></svg>