<svg xmlns="http://www.w3.org/2000/svg" width="12" viewBox="0 0 12.031 7.06" fill="#222"><path d="M.283 1.7l4.9 4.94a.622.622 0 0 0 .083.12 1.058 1.058 0 0 0 1.455 0 .622.622 0 0 0 .083-.12l4.9-4.94A1 1 0 0 0 10.29.29l-4.3 4.33L1.69.29A1 1 0 0 0 .283 1.7z"/><path d="M.24 1.675l4.949 4.984a.628.628 0 0 0 .083.12 1.069 1.067 0 0 0 1.47 0 .628.628 0 0 0 .084-.12l4.948-4.984A1.01 1.009 0 0 0 10.346.252L6.004 4.621 1.66.252A1.01 1.009 0 0 0 .24 1.675z" stroke-width="1.009"/><path d="M11.795 1.675L6.847 6.659a.628.628 0 0 1-.084.12 1.069 1.067 0 0 1-1.47 0 .628.628 0 0 1-.084-.12L.261 1.675A1.01 1.009 0 0 1 1.689.252l4.343 4.369L10.374.252a1.01 1.009 0 0 1 1.421 1.423z" stroke-width="1.009"/></svg>