<svg xmlns="http://www.w3.org/2000/svg" width="21.03" height="20.062" fill="#222" viewBox="0 0 21.03 20.062"><path d="M20.52 20.031H6.49a.512.512 0 0 1-.51-.511v-1a.511.511 0 0 1 .51-.511h14.03a.511.511 0 0 1 .51.511v1a.512.512 0 0 1-.51.511zm0-9H6.49a.512.512 0 0 1-.51-.511v-1a.511.511 0 0 1 .51-.511h14.03a.511.511 0 0 1 .51.511v1a.512.512 0 0 1-.51.511zm0-9H6.49a.512.512 0 0 1-.51-.511v-1a.511.511 0 0 1 .51-.511h14.03a.511.511 0 0 1 .51.511v1a.512.512 0 0 1-.51.511zm-18 18.036h-2a.511.511 0 0 1-.51-.511v-1.025a.511.511 0 0 1 .51-.51h2a.511.511 0 0 1 .51.51v1.028a.511.511 0 0 1-.51.506zm0-9h-2a.511.511 0 0 1-.51-.511V9.531a.511.511 0 0 1 .51-.51h2a.511.511 0 0 1 .51.51v1.028a.511.511 0 0 1-.51.506zm0-9h-2a.511.511 0 0 1-.51-.511V.531A.512.512 0 0 1 .52.02h2a.512.512 0 0 1 .51.511v1.028a.511.511 0 0 1-.51.506z"/></svg>