<svg xmlns="http://www.w3.org/2000/svg" width="23.938" height="24" viewBox="0 0 23.938 24"><defs><style>.cls-1{fill:#777;fill-rule:evenodd}</style></defs><path class="cls-1" d="M19.805 14.68c0-1.97-3.447-2.73-7.828-2.73-4.7 0-8.028.73-8.028 2.78-4.494-.93-4.683-4-2.949-5.66C3.446 6.74 4.1 9 11.956 9c7.154 0 8.59-2.4 11.2.32 1.504 1.56 1.128 4.4-3.351 5.36zM4.961 6.97V5.82c0-2.8 1.587-5.82 7-5.82 5.173 0 7 2.93 7 5.82v1.09s-2.17 1.09-7 1.09-7-1.03-7-1.03zm6.246 7.32a.939.939 0 0 0-.5.16 1.954 1.954 0 0 1 1.244-.45 2 2 0 1 1-2 2 1.974 1.974 0 0 1 .446-1.24.91.91 0 0 0-.156.49.961.961 0 1 0 .966-.96zM6.315 17c1.4 0 2.93 2.42 5.676 2.42 2.772 0 4.417-2.36 5.772-2.36a1.179 1.179 0 0 1 .851.38c1.545 1.52-2.3 6.56-6.623 6.56s-8.332-4.88-6.626-6.56a1.34 1.34 0 0 1 .95-.44zm.9 2.98a6.657 6.657 0 0 0 4.78 2.52 6.366 6.366 0 0 0 4.5-2.33 4.724 4.724 0 0 0 .886-1.42c-.209.13-.46.29-.668.43a8.313 8.313 0 0 1-4.72 1.74 7.929 7.929 0 0 1-4.639-1.78c-.267-.18-.638-.44-.884-.57a3.32 3.32 0 0 0 .741 1.41z"/></svg>