<svg xmlns="http://www.w3.org/2000/svg" width="18" height="24" viewBox="0 0 18 24"><defs><style>.cls-1{fill:#777;fill-rule:evenodd}</style></defs><path class="cls-1" d="M17.806 8.66c-.325 2.91-1.868 3.5-3.7 3.31l-.115-.02a76.832 76.832 0 0 0-.14-3.43.953.953 0 0 0 1.209-.78s.523-1.95.708-2.87.372-1.95 1.209-1.87 1.021.53 1.021 1.63a37.019 37.019 0 0 1-.192 4.03zM17.99 24H.01a14.529 14.529 0 0 1 5.661-1.78 56.412 56.412 0 0 1-.6-6.33l-1.153.1c-1.926.1-3.429-.35-3.6-3.38 0 0-.261-3.01-.314-4.61-.04-1.22.2-1.93 1.032-2 .671-.05.945.62 1.2 1.69.285 1.2.765 3.86.765 3.86a.945.945 0 0 0 1.22.8l.786-.06a84.139 84.139 0 0 1 .672-10.25C5.979.41 7.162 0 8.95 0s2.715.13 3.205 2.04c0 0 1.791 10.67.13 20.18A14.5 14.5 0 0 1 17.99 24z"/></svg>