<svg xmlns="http://www.w3.org/2000/svg" width="22.376" height="23.32" viewBox="0 0 22.376 23.32"><defs><style>.cls-1{fill:#777;fill-rule:evenodd}</style></defs><path class="cls-1" d="M17.536 19.01a9.7 9.7 0 1 1 3.551-13.25 9.7 9.7 0 0 1-3.551 13.25zm1.214-2.74a8.21 8.21 0 0 0 2.115-4.38l-2.573 1.49a12.733 12.733 0 0 1 .334 1.43 8.41 8.41 0 0 1 .124 1.46zm-1.913 1.53c.487-.28.644-1.34.408-2.76-.05-.3-.129-.62-.211-.94l-3.473 2.01c1.42 1.38 2.685 2.02 3.276 1.69zm-6.092-5.26a20.248 20.248 0 0 0 1.832 2.52l4.033-2.33a21.252 21.252 0 0 0-1.279-2.84zm3.888-3.86a20.562 20.562 0 0 0-1.834-2.52L8.765 8.49a21.252 21.252 0 0 0 1.279 2.84zm-.067 10a10.212 10.212 0 0 1-2.28-1.84l-2.588 1.5a8.2 8.2 0 0 0 3 .57 8.4 8.4 0 0 0 1.868-.23zm-6.343-1.11l3.105-1.79a22.059 22.059 0 0 1-1.8-2.54l-3.632 2.1a8.3 8.3 0 0 0 2.327 2.23zM6.749 6.41a8.611 8.611 0 0 1-.124-1.46 8.208 8.208 0 0 0-2.114 4.38l2.572-1.49a12.733 12.733 0 0 1-.334-1.43zm.784 2.79l-3.091 1.78a8.259 8.259 0 0 0 .759 3.14l3.631-2.09A23.529 23.529 0 0 1 7.533 9.2zM8.54 3.42c-.486.29-.642 1.34-.407 2.76.05.3.13.62.212.94l3.478-2.01a5.251 5.251 0 0 0-2.909-1.77.717.717 0 0 0-.374.08zm4.139-1.11a8.4 8.4 0 0 0-1.87.23 10.432 10.432 0 0 1 2.28 1.83l2.587-1.49a8.189 8.189 0 0 0-2.997-.57zm4.473 1.34l-3.105 1.79a22.81 22.81 0 0 1 1.8 2.53l3.632-2.09a8.3 8.3 0 0 0-2.327-2.23zm-.608 5.54a23.674 23.674 0 0 1 1.3 2.83l3.091-1.78a8.24 8.24 0 0 0-.759-3.14zM2.875 16.37a11.091 11.091 0 0 0 15.148 4.05l.7 1.22A12.488 12.488 0 1 1 6.235.01l.7 1.21a11.1 11.1 0 0 0-4.06 15.15z"/></svg>