<svg xmlns="http://www.w3.org/2000/svg" width="24" height="22" viewBox="0 0 24 22"><defs><style>.cls-1{fill:#777;fill-rule:evenodd}</style></defs><path class="cls-1" d="M0 22V7.44L12 0l12 7.44V22H0zM22 8.55L12 2.36 2 8.55V20h1.063v-2h-.032a3.722 3.722 0 0 1 2.716-3.5 3.434 3.434 0 0 0 3.569 0 4.194 4.194 0 0 1 1.636.98 3.079 3.079 0 0 1 .566-.24 2.737 2.737 0 0 0 2.816 0 3.181 3.181 0 0 1 1.469.96 2.66 2.66 0 0 1 .971-.54 2.35 2.35 0 0 0 2.4 0 2.5 2.5 0 0 1 1.828 2.35h-.035V20H22V8.55zm-4.025 6.77a1.685 1.685 0 1 1 1.683-1.68 1.68 1.68 0 0 1-1.683 1.68zm-5.049-.48a1.97 1.97 0 1 1 1.972-1.97 1.97 1.97 0 0 1-1.972 1.97zM7.531 14a2.5 2.5 0 1 1 2.5-2.5 2.5 2.5 0 0 1-2.5 2.5z"/></svg>