<svg xmlns="http://www.w3.org/2000/svg" width="24" height="23.94" viewBox="0 0 24 23.94"><defs><style>.cls-1{fill:#777;fill-rule:evenodd}</style></defs><path class="cls-1" d="M22.335 16.01a5.75 5.75 0 0 0-1.334 3.47c0 1.75 2.291 2.56 2.314 2.57l-.629 1.89C22.536 23.9 19 22.69 19 19.48c0-3.78 3-4.67 3-8.02 0-1.53-1.42-3.15-3.228-4.58a9.98 9.98 0 0 0-1.5-3.51c3.122 1.92 6.731 4.84 6.731 8.09a7.592 7.592 0 0 1-1.668 4.55zM9 18a9 9 0 1 1 9-9 9 9 0 0 1-9 9zm0-7.65A1.35 1.35 0 1 0 7.649 9 1.353 1.353 0 0 0 9 10.35zM4.246 5.42c-1.044-.34-1.571.17-2 1.49s-.3 2.05.744 2.38 2.52-.87 2.65-1.28-.353-2.26-1.393-2.59zm-.318 7.22c-.6.92-.242 1.56.919 2.32s1.9.82 2.5-.1-.191-2.66-.55-2.89-2.27-.25-2.868.67zM9 1.75c-1.391 0-2.04.34-2.04 1.44S8.572 5.31 9 5.31s2.037-1.03 2.037-2.12S10.391 1.75 9 1.75zm2.163 10.18c-.344.25-1.063 2.02-.427 2.91s1.363.8 2.5 0 1.46-1.46.826-2.36-2.55-.8-2.898-.55zm2.585-6.51c-1.039.33-1.527 2.19-1.393 2.59s1.607 1.62 2.649 1.28 1.173-1.06.745-2.38-.955-1.83-2-1.49z"/></svg>