<svg xmlns="http://www.w3.org/2000/svg" width="22.031" height="22.03" viewBox="0 0 22.031 22.03"><defs><style>.cls-1{fill:#777;fill-rule:evenodd}</style></defs><path id="Happy" class="cls-1" d="M633.011 1397.02A11.01 11.01 0 1 0 622 1386.01a11.012 11.012 0 0 0 11.011 11.01zm0-19.95a8.945 8.945 0 1 1-8.946 8.94 8.942 8.942 0 0 1 8.946-8.94zm0 10.81a13.819 13.819 0 0 0 6.882-1.83 6.882 6.882 0 0 1-13.764 0 13.819 13.819 0 0 0 6.882 1.83zm-5.5-5.31c0 1.14.616 2.06 1.376 2.06s1.376-.92 1.376-2.06-.616-2.06-1.376-2.06-1.381.92-1.381 2.06zm8.258 0c0 1.14.616 2.06 1.376 2.06s1.377-.92 1.377-2.06-.616-2.06-1.377-2.06-1.381.92-1.381 2.06z" transform="translate(-622 -1375)"/></svg>