<svg xmlns="http://www.w3.org/2000/svg" width="24" height="23.5" viewBox="0 0 24 23.5"><defs><style>.cls-1{fill:#777;fill-rule:evenodd}</style></defs><path class="cls-1" d="M18.41 13.02c-1.11 2.01-.02 2.55.09 3.64a1.118 1.118 0 0 1-1.29 1.41c-1.8-.71-.19-3.28-.48-3.05-.1.12-.2.23-.3.34l-.13.16v-.02c-.81.9-1.69 1.83-2.69 2.79l-2.22-2.28a20.115 20.115 0 0 1-3.16 5.21c-1.74 1.68-5.51 2.48-5.74 2.26L0 20.91l9.1-8.78.01.01c1.94-1.87 7.17-6.92 10.39-10.04h.06c2.28 0 4.39-2.11 4.39-2.11s.92 4.87-5.54 13.03zm1.8-9.3a1.23 1.23 0 0 1-.02-.26.44.44 0 0 0-.1.02l-9.76 9.42 3.3 3.4a48.217 48.217 0 0 0 3.71-4.17A9.716 9.716 0 0 0 17.92 8c-.2-1.29-.02-2.23 1.45-1.32 1.95 1.21 1.15-1.33.84-2.96zm-3.52 18.16a.917.917 0 0 1-.85 1.11.966.966 0 0 1-.84-1.13 6.931 6.931 0 0 1 .86-2.2 8.987 8.987 0 0 1 .83 2.22z"/></svg>