<svg xmlns="http://www.w3.org/2000/svg" width="20" height="22" viewBox="0 0 20 22"><defs><style>.cls-1{fill:#777;fill-rule:evenodd}</style></defs><path class="cls-1" d="M18 20h2v2H0v-2h2c0-4.81 2.9-7.37 4.44-8.92A10.661 10.661 0 0 1 2 2H0V0h20v2h-2a10.491 10.491 0 0 1-4.44 9.08C15.11 12.64 18 15.2 18 20zm-6.5-9.86C11.68 10.03 16 8.38 16 2H4c0 6.29 4.34 8.03 4.52 8.15l1.21.74-1.1.89A10.168 10.168 0 0 0 4 20c0-2.21 3.79-4.54 6-4.54s6 2.33 6 4.54a10.132 10.132 0 0 0-4.62-8.22l-1.14-.91zM8 7h4c0 .95-1.12 3-2 3S8 7.95 8 7z"/></svg>