<svg xmlns="http://www.w3.org/2000/svg" width="24" height="24" viewBox="0 0 24 24"><defs><style>.cls-1{fill:#777;fill-rule:evenodd}</style></defs><path class="cls-1" d="M12 24a12 12 0 1 1 12-12 12 12 0 0 1-12 12zm2.83-21.87l.71 1.28L12 4.92 8.46 3.41l.71-1.28a10.308 10.308 0 0 0-5.64 4.12l1.4-.27.34 3.83-2.53 2.91-.99-1.06c0 .11-.03.22-.03.34a10.226 10.226 0 0 0 2.19 6.31l.18-1.45 3.75.87 1.98 3.3-1.33.62a10.093 10.093 0 0 0 7.02 0l-1.33-.62 1.98-3.31 3.75-.86.18 1.45A10.226 10.226 0 0 0 22.28 12c0-.12-.03-.23-.03-.34l-.99 1.06-2.53-2.91.34-3.83 1.4.27a10.273 10.273 0 0 0-5.64-4.12zm-5.4 13.83l-1.59-4.89L12 8.04l4.16 3.03-1.59 4.89H9.43z"/></svg>