<svg xmlns="http://www.w3.org/2000/svg" width="89.68" height="89.68" viewBox="0 0 44.84 44.84"><defs><style>.cls-1{fill:#777;fill-rule:evenodd}</style></defs><path class="cls-1" d="M31.78 26.14c-3.19 0-6.66-1.49-10.01-2.94-3.05-1.31-6.19-2.66-8.68-2.66a11.385 11.385 0 0 0-2.19.21l13.18 13.19a10.616 10.616 0 0 0 .22-2.19 14.954 14.954 0 0 0-1.12-4.91 36.223 36.223 0 0 0 4.39 1.52 13.84 13.84 0 0 1 .47 3.39c0 13.07-13.57 13.07-18.68 13.07v-3.73a34.156 34.156 0 0 0 7.72-.7l-13.3-6.65c-.02.57-.03 1.16-.03 1.74H.02c0-5.11 0-18.68 13.07-18.68a19.14 19.14 0 0 1 6.65 1.52 16.591 16.591 0 0 1-1.04-5.26C18.7 1.57 26.78-.01 35.51-.01v3.73a28.061 28.061 0 0 0-7.55.79l13.13 6.56q.03-.84.03-1.74h3.73c0 8.73-1.58 16.81-13.07 16.81zM3.88 31.7l15.71 7.86a9.305 9.305 0 0 0 1.66-.98L4.79 26.52a22.539 22.539 0 0 0-.91 5.18zm1.65-6.95l17.09 12.51a7.326 7.326 0 0 0 .82-1.32L8.9 21.4a7.388 7.388 0 0 0-3.37 3.35zm33.41-4.98L23.24 8.28a8.73 8.73 0 0 0-.55 1.85l12.02 12.02a6.549 6.549 0 0 0 4.23-2.38zm-6.63 2.62l-9.86-9.86c0 .18-.01.35-.01.53 0 2.08.98 4.67 2.08 7.26 2.59 1.1 5.18 2.09 7.26 2.09.18 0 .35-.02.53-.02zm-6.6-16.92a6.09 6.09 0 0 0-1.47 1.22l15.64 11.45a16.605 16.605 0 0 0 1.09-5.04z"/></svg>