<svg xmlns="http://www.w3.org/2000/svg" width="22" height="23.68" viewBox="0 0 22 23.68"><defs><style>.cls-1{fill:#777;fill-rule:evenodd}</style></defs><path class="cls-1" d="M19.984 11.29l-1.543-1.28a6.822 6.822 0 0 0-.032-8.72L19.942.01a8.827 8.827 0 0 1 .042 11.28zm-4.659-3.76A2.9 2.9 0 0 0 16 5.67a2.838 2.838 0 0 0-.675-1.85l1.533-1.29a4.9 4.9 0 0 1 0 6.29zM11 8.67a3 3 0 1 1 3-3 3 3 0 0 1-3 3zm-5.858.15a4.9 4.9 0 0 1 0-6.29l1.533 1.29A2.838 2.838 0 0 0 6 5.67a2.9 2.9 0 0 0 .675 1.86zm-1.583 1.19l-1.543 1.28A8.827 8.827 0 0 1 2.058.01l1.533 1.28a6.822 6.822 0 0 0-.032 8.72zM11 9.67a3.892 3.892 0 0 0 1.7-.39L19 23.67h-2l-2.087-4.77-9.074 2.86L5 23.67H3L9.3 9.28a3.892 3.892 0 0 0 1.7.39zm-1.485 3.69l2.489-1.1-1-2.3zm3.063.21l-2.93 1.29 4.281 1.79zm.679 4.35l-4.852-2.03L6.6 20.02z"/></svg>