<svg xmlns="http://www.w3.org/2000/svg" width="24" height="24" viewBox="0 0 24 24"><defs><style>.cls-1{fill:#777;fill-rule:evenodd}</style></defs><path class="cls-1" d="M22.778 18.79c-2.632 2.63-8.7.83-13.548-4.01S2.58 3.86 5.212 1.23c1.586-1.58 4.463-1.66 7.751-.05a7.52 7.52 0 0 1 1.6-.19 8.536 8.536 0 0 1 5.984 2.45 8.438 8.438 0 0 1 2.28 7.46c1.59 3.29 1.545 6.3-.049 7.89zM19.126 4.86A6.5 6.5 0 0 0 14.563 3a3.894 3.894 0 0 0-2.638.83c-.7.7-2.347 2.35 1.771 6.46 1.759 1.76 3.337 2.69 4.563 2.69a2.562 2.562 0 0 0 1.9-.91c1.216-1.22 1.318-4.86-1.033-7.21zM4 9a2 2 0 1 1-2-2 2.158 2.158 0 0 1 .512.07l.875-.87a6.768 6.768 0 0 0 .6 2.23l-.063.06A1.957 1.957 0 0 1 4 9zm2 7a2.158 2.158 0 0 1 .512.07l1.477-1.47 1.414 1.41-1.477 1.48A1.957 1.957 0 0 1 8 18a2 2 0 1 1-2-2zm9 4a2.143 2.143 0 0 1 .511.07l.063-.06a6.724 6.724 0 0 0 2.226.6l-.874.88A1.957 1.957 0 0 1 17 22a2 2 0 1 1-2-2z"/></svg>