<svg xmlns="http://www.w3.org/2000/svg" width="22.72" height="22.72" viewBox="0 0 22.72 22.72"><defs><style>.cls-1{fill:#777;fill-rule:evenodd}</style></defs><path class="cls-1" d="M20.08 12.24a2.647 2.647 0 0 0-1.74.67c-.95.67-1.51 1.12-1.75.2s-1.07-5.98-1.07-5.98-4.11-.79-5.04-1c-.89-.21-1.38-.6-.67-1.76a2.878 2.878 0 0 0 .67-1.73 2.62 2.62 0 0 0-5.24 0 2.849 2.849 0 0 0 .65 1.73c.82 1.19.33 1.55-.65 1.76-1.06.22-5.24 1-5.24 1v5.86c.01.04.02.09.03.12.25.88.93.4 1.75-.2a2.927 2.927 0 0 1 1.75-.67 2.62 2.62 0 1 1-1.8 4.52c-.61-.49-1.52-1.1-1.7-.15-.01.05-.02.12-.03.19v5.92h15.52s.9-5.16 1.07-6.11.73-.62 1.7.15a2.89 2.89 0 0 0 1.79.72 2.62 2.62 0 0 0 0-5.24z"/></svg>