<svg xmlns="http://www.w3.org/2000/svg" width="23.688" height="23.82" viewBox="0 0 23.688 23.82"><defs><style>.cls-1{fill:#777;fill-rule:evenodd}</style></defs><path class="cls-1" d="M23.407 10.29c-1.483 1.56-.608 4.39-.6 4.42l-1.9.62c-.047-.14-1.026-3.2.419-5.6-1.692-1.62-1.848-4.16-1.766-5.67-1.478-.02-3.9-.28-5.353-1.73-2.076 1.07-5.3.52-5.707.45L8.859.81c1.177.22 3.9.37 4.8-.51l.291-.28h.982l.376.5c.9 1.56 4.2 1.61 5.274 1.5l1.332-.13-.254 1.32c-.007.04-.744 4.07 1.537 5.45l.481.3v.96zm-11.6 1.24a1.3 1.3 0 0 1-1.786.46L6.502 9.53c-.242.39-.465.73-.6.91 3.313 2.62 4.432 4.05 5.76 2.49a1.813 1.813 0 0 0 .1 2.28 1.721 1.721 0 0 0 1.373.76c-.668.77-.293 1.63.358 2.47a2.195 2.195 0 0 0 1.067.72c-5.369 3.76-6.734 2.43-9.588 4.64l-4.975-5.44c1.434-1.44-.07-6.18 1.13-7.75.944-1.23 1.721-2.25 2.715-3.39.957-1.1 2.423-.83 3.73-.29a.219.219 0 0 1 .016.03 1.408 1.408 0 0 0 .151.07l3.608 2.72a1.3 1.3 0 0 1 .465 1.78zm5.676-.7a1.3 1.3 0 0 1-.223 1.83l-2.451 1.91a1.302 1.302 0 1 1-1.606-2.05l2.451-1.92a1.3 1.3 0 0 1 1.834.23zm-6.219-2.38c-.263-.23-1.754-1.31-2.108-1.6l1.192-1.04a1.302 1.302 0 1 1 1.605 2.05zm4.13-.54a1.3 1.3 0 0 1-.224 1.82l-2.451 1.91a1.417 1.417 0 0 0 .11-1.73c-.441-.56-.665-.73-.83-.96l1.566-1.27a1.3 1.3 0 0 1 1.834.23zm-.98 8.15l2.452-1.91a1.3 1.3 0 0 1 1.6 2.05l-2.451 1.92a1.306 1.306 0 0 1-1.596-2.06z"/></svg>