<svg xmlns="http://www.w3.org/2000/svg" width="24" height="23.88" viewBox="0 0 24 23.88"><defs><style>.cls-1{fill:#777;fill-rule:evenodd}</style></defs><path class="cls-1" d="M22.09 17.31c-.62 1.78-2.94 6.58-10.09 6.58s-9.47-4.8-10.09-6.58a2.828 2.828 0 0 1 .03-5.36 9.463 9.463 0 0 1 7.4-7.75A2.541 2.541 0 0 0 8 3.89v-2a3.863 3.863 0 0 1 3.67 2.01c.11 0 .22-.01.33-.01h.08a5.167 5.167 0 0 1 2.48-3.9l.88 1.79a3.212 3.212 0 0 0-1.38 2.3 9.531 9.531 0 0 1 8 7.87 2.828 2.828 0 0 1 .03 5.36zm-.87-3.5H20.2l-.06-.95c-.21-3.97-3.71-6.97-8.14-6.97s-7.93 3-8.14 6.97l-.06.95H2.78a.827.827 0 0 0-.01 1.65l.76.06.15.74c.05.23 1.26 5.63 8.32 5.63 7.11 0 8.27-5.4 8.32-5.63l.15-.74.76-.06a.827.827 0 0 0-.01-1.65zM16 14.89a2 2 0 1 1 2-2 2.006 2.006 0 0 1-2 2zm-4 5c-2.67 0-4-2.68-4-2.68a8.9 8.9 0 0 0 4 .68 8.778 8.778 0 0 0 4-.68s-1.33 2.68-4 2.68zm-4-5a2 2 0 1 1 2-2 2.006 2.006 0 0 1-2 2z"/></svg>