<svg xmlns="http://www.w3.org/2000/svg" width="24" height="18.18" viewBox="0 0 24 18.18"><defs><style>.cls-1{fill:#777;fill-rule:evenodd}</style></defs><path class="cls-1" d="M23.808 12.13c-1.429 4.48-8.56 5.91-8.862 5.96l-.535.11-.378-.4a19.27 19.27 0 0 1-2.7-3.77 26.146 26.146 0 0 1-2.33 1.5s-9-4.91-9-11.05a4.5 4.5 0 0 1 4.5-4.5c2.485 0 4.5 2.56 4.5 2.56s2.016-2.56 4.5-2.56a4.5 4.5 0 0 1 4.5 4.5 6.949 6.949 0 0 1-.449 2.4c.115.16.23.32.319.47a5.1 5.1 0 0 1 3.306-.32 4.066 4.066 0 0 1 2.629 5.1zm-3.239-3.19a3.879 3.879 0 0 0-2.574.6l-1.05.71-.447-1.19a3.588 3.588 0 0 0-1.751-1.98 2.224 2.224 0 0 0-.625-.1 2.055 2.055 0 0 0-1.957 1.43c-.809 2.54 1.581 6.03 2.942 7.6 2.02-.5 5.989-1.96 6.8-4.49a2.053 2.053 0 0 0-1.338-2.58z"/></svg>