<svg xmlns="http://www.w3.org/2000/svg" width="16" height="24" viewBox="0 0 16 24"><defs><style>.cls-1{fill:#777;fill-rule:evenodd}</style></defs><path class="cls-1" d="M13.984 12.56c0 2.17.739 5.65.957 9.36a1.959 1.959 0 0 1-1.95 2.08h-.04A1.949 1.949 0 0 1 11 22.05v-22c1.1 0 5 2.72 5 5.99s-2.016 5.37-2.016 6.52zm-8.019 9.46A1.944 1.944 0 0 1 4.02 24h-.04a1.944 1.944 0 0 1-1.945-1.98L2.25 10 0 7l1-7h1v5.5a.5.5 0 0 0 1 0c0-.09.35-5.5.35-5.5h1.3S5 5.41 5 5.5a.5.5 0 0 0 1 0V0h1l1 7-2.25 3z"/></svg>