<svg xmlns="http://www.w3.org/2000/svg" width="24" height="24" viewBox="0 0 24 24"><defs><style>.cls-1{fill:#777;fill-rule:evenodd}</style></defs><path class="cls-1" d="M23.02 23.02c-.96.95-2.2 1.27-2.77.69l-4.53-4.52a1.6 1.6 0 0 1 .02-1.84l-2.09-2.1a8.524 8.524 0 1 1 1.6-1.6l2.1 2.09a1.6 1.6 0 0 1 1.84-.02l4.52 4.53c.58.57.26 1.81-.69 2.77zM8.5 2A6.5 6.5 0 1 0 15 8.5 6.5 6.5 0 0 0 8.5 2zm0 11a4.482 4.482 0 0 1-4.36-3.45l-1.59-.54a6.419 6.419 0 0 1 11.9 0l-1.59.54A4.482 4.482 0 0 1 8.5 13zm2.34-5.35a2.421 2.421 0 0 1 .16.85 2.5 2.5 0 0 1-5 0 2.421 2.421 0 0 1 .16-.85 4.305 4.305 0 0 0-1.14 1.03 3.484 3.484 0 0 0 6.96 0 4.142 4.142 0 0 0-1.14-1.03z"/></svg>