<svg xmlns="http://www.w3.org/2000/svg" width="22" height="23.97" viewBox="0 0 22 23.97"><defs><style>.cls-1{fill:#777;fill-rule:evenodd}</style></defs><path class="cls-1" d="M20.126 15.6a2.968 2.968 0 0 1-.5 2.19c-.808.94-3.628 1.18-3.628 2.52a2.773 2.773 0 0 1-1.488 2.84.819.819 0 0 1-.964.37.906.906 0 0 1-1.281.21 16.078 16.078 0 0 1-2.534 0 .906.906 0 0 1-1.281-.21.819.819 0 0 1-.964-.37 2.773 2.773 0 0 1-1.488-2.84c0-1.34-2.82-1.58-3.628-2.52a2.968 2.968 0 0 1-.5-2.19A14.822 14.822 0 0 1-.004 8.86c0-4.88 4.317-8.85 11-8.85s11 3.97 11 8.85a14.822 14.822 0 0 1-1.87 6.74zM11 2.01c-4.351 0-9.251 1.65-9.251 7.07a11.483 11.483 0 0 0 .6 4.14 4.208 4.208 0 0 1 1.564-2.92s-1.456 4.92-.041 6.17a5.314 5.314 0 0 0 1.241.66c1.061.44 2.513 1.52 2.513 3.14 0 1.33.2 1.78 1.014 1.59a.61.61 0 0 0 1.135.13 37.4 37.4 0 0 0 2.446 0 .61.61 0 0 0 1.135-.13c.809.19 1.014-.26 1.014-1.59 0-1.62 1.452-2.7 2.513-3.14a5.314 5.314 0 0 0 1.241-.66c1.415-1.25-.041-6.17-.041-6.17a4.208 4.208 0 0 1 1.564 2.92 11.483 11.483 0 0 0 .6-4.14c.004-5.42-4.896-7.07-9.247-7.07zm3 14c-1.035 0-1.656-.69-2-2.01.322-.35 1.652-1.97 2.27-2.77 1.24-1.61 2.726-.11 2.726 1.44A3.164 3.164 0 0 1 14 16.01zm-2.065 3a.939.939 0 0 0-1.87 0 .6.6 0 0 1-.627-.63 1.753 1.753 0 1 1 3.124 0 .6.6 0 0 1-.627.63zM8 16.01a3.164 3.164 0 0 1-3-3.34c0-1.55 1.486-3.05 2.726-1.44.618.8 1.948 2.42 2.27 2.77-.34 1.32-.961 2.01-1.996 2.01z"/></svg>