<svg xmlns="http://www.w3.org/2000/svg" width="19.312" style="transform:rotate(180deg);transform-origin:center" height="43.7" viewBox="0 0 9.656 21.85" fill="#777"><path data-name="Rounded Rectangle 9" class="cls-1" d="M9.641 10.93a.962.962 0 0 1-.014.2 1.083 1.083 0 0 1-.045.14 1.04 1.04 0 0 1-.059.17l-7.181 9.92a1.008 1.008 0 0 1-1.376.37l-.469-.27a1 1 0 0 1-.368-1.37l6.627-9.16L.129 1.77A1 1 0 0 1 .497.4L.966.13A1 1 0 0 1 2.342.5l7.181 9.92a.792.792 0 0 1 .059.17 1.083 1.083 0 0 1 .045.14.915.915 0 0 1 .014.2z"/></svg>