<svg xmlns="http://www.w3.org/2000/svg" width="19.312" height="43.7" viewBox="0 0 9.656 21.85"><defs><style>.cls-1{fill:#fff;fill-rule:evenodd;opacity:1}</style></defs><path id="Rounded_Rectangle_9" data-name="Rounded Rectangle 9" class="cls-1" d="M723.9 4782.02l6.627 9.16a1 1 0 0 1-.368 1.37l-.469.27a1.008 1.008 0 0 1-1.376-.37l-7.181-9.92a1.04 1.04 0 0 1-.059-.17 1.083 1.083 0 0 1-.045-.14.962.962 0 0 1-.014-.2.915.915 0 0 1 .014-.2 1.083 1.083 0 0 1 .045-.14.792.792 0 0 1 .059-.17l7.181-9.92a1 1 0 0 1 1.376-.37l.469.27a1 1 0 0 1 .368 1.37z" transform="translate(-721 -4771.09)"/></svg>