<svg xmlns="http://www.w3.org/2000/svg" width="27" fill="#ccc" height="20.12" viewBox="0 0 27 20.12"><path d="M26.489 15.01H22V19a1.147 1.147 0 0 1-.466 1h-.992a.512.512 0 0 1-.511-.51v-4.83A.506.506 0 0 1 20 14.5v-.99a.512.512 0 0 1 .511-.51h5.978a.512.512 0 0 1 .511.51v.99a.512.512 0 0 1-.511.51zm0-8.01H22c0 .23-.13.07-.333 0h-1.156A.512.512 0 0 1 20 6.49V5.5a.506.506 0 0 1 .031-.16V.51a.512.512 0 0 1 .511-.51h.992A1.147 1.147 0 0 1 22 1v3.99h4.489A.512.512 0 0 1 27 5.5v.99a.512.512 0 0 1-.511.51zM6.969 19.49a.512.512 0 0 1-.511.51h-.992C5.184 20 5 20.28 5 20v-4.99H.511A.512.512 0 0 1 0 14.5v-.99A.512.512 0 0 1 .511 13h5.978a.512.512 0 0 1 .511.51v.99a.506.506 0 0 1-.031.16v4.83zM6.489 7H5.343c-.2.07-.343.23-.343 0H.511A.512.512 0 0 1 0 6.49v-.98A.512.512 0 0 1 .511 5H5V1a1.155 1.155 0 0 1 .479-1h.979a.512.512 0 0 1 .511.51v4.85A.5.5 0 0 1 7 5.51v.98a.512.512 0 0 1-.511.51z"/></svg>