<svg xmlns="http://www.w3.org/2000/svg" width="16.187" height="22.438" viewBox="0 0 16.187 22.438"><path d="M.506 6.377v-.112a1.36 1.36 0 0 1 1.143-1.342 1.626 1.626 0 0 1 1.528-2.185 1.634 1.634 0 0 1 .638.13c0-.043-.007-.086-.007-.13a1.414 1.414 0 0 1 2.754-.453 1.4 1.4 0 0 1 .6-.135 1.419 1.419 0 0 1 .227.018 2.483 2.483 0 0 1 4.863-.308h.081a1.706 1.706 0 0 1 1.706 1.706 1.728 1.728 0 0 1-.031.324 1.191 1.191 0 0 1 .709 1.09v.106a1.192 1.192 0 0 1 1.032 1.181.7.7 0 0 1-.009.112H.506zm2.4.843l.032.405 1.185 14.813H2.286L-.014 7.22h2.92zm4.454.405v14.813H5.576L4.392 7.625 4.36 7.22h3v.405zm4.422 0l-1.183 14.813H8.815V7.22h3zm1.487-.405h2.917l-2.238 15.218h-1.894l1.183-14.813z"/></svg>