<svg xmlns="http://www.w3.org/2000/svg" width="20" height="18" viewBox="0 0 20 18"><defs><style>.cls-1{fill:#777;fill-rule:evenodd}</style></defs><path id="Forma_1" data-name="Forma 1" class="cls-1" d="M892 108V96l3.978 3.785h3.707l-3.985-3.721h3.338l3.985 3.721h3.706l-3.984-3.721h3.14l3.985 3.721H912V108h-20zm20-11.936v2.248l-2.408-2.248H912zm-.521-5.429l.421 2.695-2.886.39zm-9.439 4.028l3.372-4.216 3.3-.447-3.372 4.216zm-6.777.917l3.372-4.216 3.108-.421-3.372 4.216zm-2.833-.548l-.038-.241-.392-2.529 2.967-.4-1.667 2.08z" transform="translate(-892 -90)"/></svg>