<svg xmlns="http://www.w3.org/2000/svg" width="110" height="110" viewBox="0 0 55 55"><defs><style>.cls-1{fill:#fff;fill-rule:evenodd}</style></defs><path id="ico1" class="cls-1" d="M940.936 4451.26l-.708.71a3.505 3.505 0 0 1-4.944 0l-13.814-13.82a22.028 22.028 0 1 1 5.652-5.65l13.814 13.82a3.492 3.492 0 0 1 0 4.94zm-11.888-31.22a20.035 20.035 0 1 0-20.035 20.04 20.034 20.034 0 0 0 20.035-20.04zm10.525 27.71l-13.655-13.65a22.856 22.856 0 0 1-2.83 2.83l13.654 13.65a1.46 1.46 0 0 0 2.079 0l.752-.75a1.471 1.471 0 0 0 0-2.08zm-32.673-20.21c-.778.78-2.887.65-2.887-.99v-13.13c0-1.77 2.13-1.78 2.907-1l9.5 6.18a1.983 1.983 0 0 1 0 2.81zm6.8-8.03l-5.891-3.83c-.482-.48-1.8-.86-1.8.24v8.14c0 1.02 1.308.67 1.79.19l5.9-3.8c.482-.49.482-.45.001-.94z" transform="translate(-886.969 -4398)"/></svg>