<svg xmlns="http://www.w3.org/2000/svg" width="164" height="104" viewBox="0 0 82 52"><defs><style>.cls-1{fill:#fff;fill-rule:evenodd}</style></defs><path id="ico2" class="cls-1" d="M1100 4453h-34a2.006 2.006 0 0 1-2-2v-5.99h-8.97v1.99h6.49a.512.512 0 0 1 .51.51v.98a.506.506 0 0 1-.51.51h-14.98a.506.506 0 0 1-.51-.51v-.98a.512.512 0 0 1 .51-.51h6.49v-1.99H1022a2.008 2.008 0 0 1-2-2.01v-40a2.006 2.006 0 0 1 2-2h64a2.006 2.006 0 0 1 2 2v8.99h12a2.006 2.006 0 0 1 2 2V4451a2.006 2.006 0 0 1-2 2zm-33.94-2h13.97v-25.98h-13.97V4451zm19.97-47.97h-63.97v39.98H1064v-18.02a2 2 0 0 1 2-2h6v-9a2.006 2.006 0 0 1 2-2h12.03v-8.96zm14 10.99h-25.97v8.97h5.94a2 2 0 0 1 2 2V4451h18.03v-36.98zm-13.49 32.98h.98a.512.512 0 0 1 .51.51v.98a.506.506 0 0 1-.51.51h-.98a.506.506 0 0 1-.51-.51v-.98a.512.512 0 0 1 .51-.51zm-13.02 2h-.98a.506.506 0 0 1-.51-.51v-.98a.512.512 0 0 1 .51-.51h.98a.512.512 0 0 1 .51.51v.98a.506.506 0 0 1-.51.51z" transform="translate(-1020 -4401)"/></svg>