<svg xmlns="http://www.w3.org/2000/svg" width="200" height="240.12" viewBox="0 0 50 60.03"><defs><style>.cls-1{fill:#fff;fill-rule:evenodd}</style></defs><path id="ico3" class="cls-1" d="M1213.86 4407.99h-10.63a8.87 8.87 0 0 0 2.84-6.56 8.472 8.472 0 0 0-8.63-8.47 8.287 8.287 0 0 0-7.44 4.29 8.625 8.625 0 0 0-16.08 4.18 8.8 8.8 0 0 0 2.8 6.56h-10.59a1.133 1.133 0 0 0-1.12 1.13v9.75a1.133 1.133 0 0 0 1.12 1.13h.87v32a.925.925 0 0 0 1 1h44a.92.92 0 0 0 1-1v-32h.86a1.135 1.135 0 0 0 1.13-1.13v-9.75a1.135 1.135 0 0 0-1.13-1.13zm-.86 2.01v8h-22v-8h22zm-15.56-15a6.577 6.577 0 0 1 6.59 6.43 6.68 6.68 0 0 1-6.58 6.56h-6.43v-6.56a6.436 6.436 0 0 1 6.42-6.43zm-21.38 6.43a6.435 6.435 0 0 1 12.87 0v6.56h-6.44a6.55 6.55 0 0 1-6.43-6.56zM1167 4410h22v8h-22v-8zm22 10v13h-20l-.01-13H1189zm-20 15h20v16l-20.01.01zm22 16v-16h20v16h-20zm20-18h-20l.02-13H1211v13z" transform="translate(-1165 -4392.97)"/></svg>