<svg xmlns="http://www.w3.org/2000/svg" width="800" height="800" viewBox="100 0 800 800"><path d="M758.1 601.5l-127.7-31.934-7.367-29.5c88.1-14.833 133.434-41.233 135.434-42.399 4.733-2.767 7.666-7.801 8.066-13.267.367-5.467-2.066-10.834-6.366-14.268C759.566 469.667 700 420.467 700 250c0-143.767-33.634-216.667-100-216.667h-9.833C566.233 10.2 548.267 0 500 0c-62.633 0-200 62.967-200 250 0 170.467-59.566 219.667-60 220a16.717 16.717 0 0 0-6.667 14.167c.3 5.566 3.3 10.566 8.066 13.433 2 1.2 46.9 27.733 135.534 42.533l-7.367 29.434-127.7 31.934C158.333 622.4 100 697.133 100 783.333c0 9.2 7.467 16.667 16.667 16.667h766.667c9.2 0 16.667-7.533 16.667-16.733C900 697.133 841.667 622.4 758.1 601.5z"/><text transform="translate(100 1300)" font-family="'HelveticaNeue-Bold'" font-size="166.667">Created by icon 54</text><text transform="translate(100 1466.656)" font-family="'HelveticaNeue-Bold'" font-size="166.667">from the Noun Project</text></svg>