<svg xmlns="http://www.w3.org/2000/svg" width="27.12" height="20.062" fill="#ccc" viewBox="0 0 27.12 20.062"><path d="M26.6 20.054h-6.03a.512.512 0 0 1-.51-.511v-1a.511.511 0 0 1 .51-.511h4.49v-4.526a.511.511 0 0 1 .51-.51h1a.511.511 0 0 1 .51.51v4.9a.581.581 0 0 1 .03.134v1a.512.512 0 0 1-.51.514zm.48-13.5a.511.511 0 0 1-.51.511h-1a.511.511 0 0 1-.51-.511V2.031h-4.49a.512.512 0 0 1-.51-.511v-1a.511.511 0 0 1 .51-.511h6.03a.511.511 0 0 1 .51.511v1a.581.581 0 0 1-.03.134v4.9zm-20.53 13.5H.52a.512.512 0 0 1-.51-.511v-1a.581.581 0 0 1 .03-.134v-4.9a.511.511 0 0 1 .51-.51h1a.511.511 0 0 1 .51.51v4.522h4.49a.511.511 0 0 1 .51.511v1a.512.512 0 0 1-.51.512zm0-18.025H2.06v4.525a.511.511 0 0 1-.51.511h-1a.511.511 0 0 1-.51-.511v-4.9a.581.581 0 0 1-.03-.134v-1A.511.511 0 0 1 .52.009h6.03a.511.511 0 0 1 .51.511v1a.512.512 0 0 1-.51.511z"/></svg>