<svg xmlns="http://www.w3.org/2000/svg" width="155" height="60" viewBox="0 0 155 60"><path d="M111.854 29.239H109.2v4.285h2.654c1.395 0 2.187-1.174 2.187-2.143 0-.987-.792-2.142-2.187-2.142zm-43.031 4.188c-1.289 0-2.401 1.047-2.401 2.578 0 1.514 1.112 2.578 2.401 2.578 1.289 0 2.4-1.063 2.4-2.578 0-1.531-1.112-2.578-2.4-2.578zm30.652-.032c-.95 0-2.271.838-2.223 2.481l3.802-1.579c-.209-.532-.837-.902-1.579-.902zm-12.05.032c-1.289 0-2.368 1.096-2.368 2.594 0 1.482 1.08 2.562 2.368 2.562 1.273 0 2.271-1.079 2.271-2.562 0-1.498-.998-2.594-2.271-2.594z"/><path d="M141 10H14a4 4 0 0 0-4 4v32a4 4 0 0 0 4 4h127a4 4 0 0 0 4-4V14a4 4 0 0 0-4-4zm-55.525 6.9h1.094l2.785 4.458-.024-.845V16.9h.972v6.2h-.96l-2.92-4.683.024.844V23.1h-.971v-6.2zm-6.337.806c.606-.625 1.371-.941 2.271-.94.895-.001 1.659.317 2.268.944.609.625.917 1.396.916 2.29.001.899-.306 1.672-.912 2.294-.607.625-1.372.941-2.272.939-.9.001-1.665-.314-2.271-.939-.608-.623-.913-1.395-.912-2.294-.001-.899.305-1.672.912-2.294zm-9.3-.806h.97v6.2h-.971v-6.2zm-11.413 0h3.703v.937h-2.732v1.702h2.464v.921h-2.464v1.702h2.732v.938h-3.703v-6.2zm-6.234.796a3.12 3.12 0 0 1 2.278-.93c.443 0 .868.087 1.271.26.402.173.73.405.976.698l.059.07-.065.065-.605.605-.07-.084c-.379-.451-.89-.675-1.566-.676a2.178 2.178 0 0 0-1.569.638c-.441.426-.66.97-.661 1.659.001.688.22 1.232.661 1.659.445.428.961.637 1.569.638.648-.001 1.175-.213 1.605-.641.248-.249.391-.601.449-1.045h-2.154v-.922h3.091l.015.082c.029.162.044.319.044.47.001.856-.256 1.554-.773 2.072l-.001.001-.001.001c-.582.611-1.35.918-2.275.917-.889.001-1.656-.311-2.278-.929-.625-.617-.94-1.394-.939-2.304-.001-.911.314-1.687.939-2.304zm10.16 20.709c-1.16 1.208-2.642 1.853-4.608 1.853-3.641 0-6.702-2.964-6.702-6.605 0-3.641 3.061-6.605 6.702-6.605 2.014 0 3.448.789 4.527 1.82l-1.273 1.273c-.773-.725-1.82-1.289-3.254-1.289-2.658 0-4.736 2.143-4.736 4.801s2.078 4.801 4.736 4.801c1.724 0 2.707-.693 3.335-1.321.516-.516.854-1.257.983-2.272h-4.318v-1.804h6.074c.065.322.097.709.097 1.128 0 1.353-.37 3.028-1.563 4.22zm.381-20.568V16.9h4.323v.937h-1.676V23.1h-.972v-5.263h-1.675zm6.091 22.421c-2.352 0-4.269-1.804-4.269-4.253 0-2.465 1.917-4.253 4.269-4.253 2.352 0 4.269 1.788 4.269 4.253 0 2.448-1.917 4.253-4.269 4.253zm2.758-22.421V16.9h4.323v.937h-1.676V23.1h-.972v-5.263h-1.675zm6.555 22.421c-2.352 0-4.269-1.804-4.269-4.253 0-2.465 1.917-4.253 4.269-4.253 2.352 0 4.269 1.788 4.269 4.253 0 2.448-1.917 4.253-4.269 4.253zm13.204-.612c0 3.142-1.853 4.43-4.044 4.43-2.062 0-3.303-1.385-3.77-2.513l1.627-.677c.29.693.999 1.514 2.143 1.514 1.402 0 2.272-.87 2.272-2.497v-.612h-.064c-.419.516-1.224.967-2.239.967-2.126 0-4.076-1.853-4.076-4.237 0-2.4 1.949-4.269 4.076-4.269 1.015 0 1.821.451 2.239.951h.064v-.693h1.772v7.636zm3.157.354h-1.869V27.498h1.869V40zm5.123-1.418c.951 0 1.611-.467 2.094-1.176l1.45.967c-.467.693-1.595 1.885-3.544 1.885-2.417 0-4.221-1.869-4.221-4.253 0-2.529 1.82-4.253 4.011-4.253 2.207 0 3.287 1.756 3.641 2.706l.193.483-5.687 2.352c.436.854 1.113 1.289 2.063 1.289zm12.186-3.318H109.2V40h-1.866V27.499h4.471c2.068 0 4.101 1.497 4.101 3.883s-2.032 3.882-4.1 3.882zM118.802 40h-1.866V27.499h1.866V40zm8.379-.021h-1.801v-.965h-.064c-.434.659-1.126 1.222-2.38 1.222-1.641 0-3.104-1.078-3.104-2.75 0-1.833 1.817-2.815 3.603-2.815.885 0 1.608.289 1.946.482v-.129c-.016-1.029-.997-1.608-1.962-1.608-.692 0-1.351.225-1.705.917l-1.657-.692c.579-1.319 1.978-1.914 3.329-1.914 2.139 0 3.796 1.238 3.796 3.458v4.794zm3.507 3.812h-1.946l1.898-4.214-3.329-7.575h2.01l2.219 5.42h.064l2.139-5.42h2.075l-5.13 11.789z"/><path d="M81.409 22.297a2.1 2.1 0 0 0 1.559-.645c.425-.431.637-.975.638-1.652-.001-.677-.213-1.22-.638-1.652a2.098 2.098 0 0 0-1.559-.644 2.105 2.105 0 0 0-1.559.644c-.424.432-.636.975-.637 1.652.001.677.213 1.22.637 1.652.428.432.94.643 1.559.645zm-3.273 11.13c-1.289 0-2.401 1.047-2.401 2.578 0 1.514 1.112 2.578 2.401 2.578 1.289 0 2.4-1.063 2.4-2.578 0-1.531-1.111-2.578-2.4-2.578zm43.561 4.091c0 .756.852 1.061 1.464 1.061 1.078 0 2.075-.82 2.22-1.978-.499-.241-.885-.418-1.705-.418-.918.001-1.979.371-1.979 1.335z"/><linearGradient id="a" gradientUnits="userSpaceOnUse" x1="-.001" y1="-30" x2=".999" y2="-30" gradientTransform="rotate(135 -135.422 -340.06) scale(23.7339)"><stop offset="0" stop-color="#00a0ff"/><stop offset=".007" stop-color="#00a1ff"/><stop offset=".26" stop-color="#00beff"/><stop offset=".512" stop-color="#00d2ff"/><stop offset=".76" stop-color="#00dfff"/><stop offset="1" stop-color="#00e3ff"/></linearGradient><path fill="url(#a)" d="M20.006 18.744c0 .001 0 .001 0 0 0 .001 0 .001 0 0m.53-1.133c-.335.303-.536.808-.536 1.479v-.152 22.121-.146c0 .619.172 1.097.463 1.405l.074.071L32.926 30l-12.39-12.389"/><linearGradient id="b" gradientUnits="userSpaceOnUse" x1="-.001" y1="-30.001" x2=".999" y2="-30.001" gradientTransform="rotate(180 21.907 -347.963) scale(24.1969)"><stop offset="0" stop-color="#ffe000"/><stop offset=".409" stop-color="#ffbd00"/><stop offset=".775" stop-color="orange"/><stop offset="1" stop-color="#ff9c00"/></linearGradient><path fill="url(#b)" d="M37.056 25.87l-4.13 4.131 4.131 4.131 4.986-2.833c.633-.36.989-.824 1.048-1.297V30c-.059-.474-.415-.937-1.048-1.297l-4.987-2.833"/><linearGradient id="c" gradientUnits="userSpaceOnUse" x1="-.001" y1="-30.009" x2=".999" y2="-30.009" gradientTransform="rotate(135 -189.427 -459.49) scale(32.1851)"><stop offset="0" stop-color="#ff3a44"/><stop offset="1" stop-color="#c31162"/></linearGradient><path fill="url(#c)" d="M20.469 42.47c.021.022.042.042.064.062l-.064-.062m12.457-12.469L20.537 42.39l-.074.074.074-.074c.236.212.538.325.884.325.338 0 .719-.108 1.12-.336l14.515-8.247.093.093-.093-.093-4.13-4.131"/><linearGradient id="d" gradientUnits="userSpaceOnUse" x1=".001" y1="-29.979" x2="1.001" y2="-29.979" gradientTransform="rotate(45 -523.658 -189.797) scale(14.372)"><stop offset="0" stop-color="#32a071"/><stop offset=".069" stop-color="#2da771"/><stop offset=".476" stop-color="#15cf74"/><stop offset=".801" stop-color="#06e775"/><stop offset="1" stop-color="#00f076"/></linearGradient><path fill="url(#d)" d="M21.419 17.287a1.29 1.29 0 0 0-.883.325l12.39 12.39 4.13-4.131-14.515-8.247c-.402-.229-.783-.337-1.122-.337"/><linearGradient id="e" gradientUnits="userSpaceOnUse" x1="-.001" y1="-30.009" x2=".999" y2="-30.009" gradientTransform="rotate(135 -189.427 -459.49) scale(32.1851)"><stop offset="0" stop-color="#cc2e36"/><stop offset="1" stop-color="#9c0e4e"/></linearGradient><path fill="url(#e)" d="M37.056 34.132l-14.515 8.247c-.401.228-.782.336-1.12.336-.346 0-.648-.113-.884-.325l-.074.074.006.006.064.062.004.004c.236.212.538.325.884.325.053 0 .106-.003.161-.008.296-.029.62-.136.959-.328l14.608-8.3-.093-.093"/><linearGradient id="f" gradientUnits="userSpaceOnUse" x1="-.001" y1="-30.339" x2=".999" y2="-30.339" gradientTransform="rotate(135 -135.422 -340.06) scale(23.7339)"><stop offset="0" stop-color="#008de0"/><stop offset=".007" stop-color="#008de0"/><stop offset=".26" stop-color="#00a7e0"/><stop offset=".512" stop-color="#00b8e0"/><stop offset=".76" stop-color="#00c4e0"/><stop offset="1" stop-color="#00c7e0"/></linearGradient><path fill="url(#f)" d="M20 40.913v.146c0 .62.172 1.097.463 1.405l.074-.074-.074-.071c-.291-.309-.463-.786-.463-1.406"/><linearGradient id="g" gradientUnits="userSpaceOnUse" x1="-.001" y1="-29.916" x2=".999" y2="-29.916" gradientTransform="rotate(135 -189.427 -459.49) scale(32.1851)"><stop offset="0" stop-color="#e0333c"/><stop offset="1" stop-color="#ab0f56"/></linearGradient><path fill="url(#g)" d="M20.537 42.39l-.074.074.074-.074"/><linearGradient id="h" gradientUnits="userSpaceOnUse" x1="-.001" y1="-30.088" x2=".999" y2="-30.088" gradientTransform="rotate(180 21.907 -347.963) scale(24.1969)"><stop offset="0" stop-color="#e0c500"/><stop offset=".409" stop-color="#e0a600"/><stop offset=".775" stop-color="#e09100"/><stop offset="1" stop-color="#e08900"/></linearGradient><path fill="url(#h)" d="M43.09 30.002c-.059.473-.415.937-1.048 1.297l-4.986 2.833.093.093 4.893-2.78c.454-.258.761-.569.92-.9.085-.177.128-.36.128-.543"/><linearGradient id="i" gradientUnits="userSpaceOnUse" x1="-.009" y1="-30.099" x2="-.009" y2="-30.099" gradientTransform="rotate(135 -189.427 -459.49) scale(32.1851)"><stop offset="0" stop-color="#e0333c"/><stop offset="1" stop-color="#ab0f56"/></linearGradient><path fill="url(#i)" d="M37.056 34.132l.093.093-.093-.093"/><linearGradient id="j" gradientUnits="userSpaceOnUse" x1="-.001" y1="-29.643" x2=".999" y2="-29.643" gradientTransform="rotate(135 -135.422 -340.06) scale(23.7339)"><stop offset="0" stop-color="#40b8ff"/><stop offset=".007" stop-color="#40b9ff"/><stop offset=".26" stop-color="#40ceff"/><stop offset=".512" stop-color="#40ddff"/><stop offset=".76" stop-color="#40e7ff"/><stop offset="1" stop-color="#40eaff"/></linearGradient><path fill="url(#j)" d="M20.463 17.538c-.259.274-.424.683-.457 1.206v.016a2.572 2.572 0 0 0-.006.177v.153c0-.67.201-1.176.536-1.478l-.073-.074m.074-.073l-.003.003.003-.003"/><linearGradient id="k" gradientUnits="userSpaceOnUse" x1="-.001" y1="-29.913" x2=".999" y2="-29.913" gradientTransform="rotate(180 21.907 -347.963) scale(24.1969)"><stop offset="0" stop-color="#ffe840"/><stop offset=".409" stop-color="#ffce40"/><stop offset=".775" stop-color="#ffbc40"/><stop offset="1" stop-color="#ffb540"/></linearGradient><path fill="url(#k)" d="M37.149 25.777l-.093.093 4.986 2.833c.633.36.989.823 1.048 1.297 0-.523-.35-1.046-1.048-1.443l-4.893-2.78"/><linearGradient id="l" gradientUnits="userSpaceOnUse" x1=".001" y1="-29.983" x2="1.001" y2="-29.983" gradientTransform="rotate(45 -523.658 -189.797) scale(14.372)"><stop offset="0" stop-color="#65b895"/><stop offset=".069" stop-color="#62bd95"/><stop offset=".476" stop-color="#50db97"/><stop offset=".801" stop-color="#44ed98"/><stop offset="1" stop-color="#40f498"/></linearGradient><path fill="url(#l)" d="M21.42 17.14a1.29 1.29 0 0 0-.883.325l-.003.003a1.533 1.533 0 0 0-.071.069l.073.073c.235-.212.537-.325.883-.325.339 0 .72.108 1.122.337l14.515 8.247.093-.093-14.608-8.3c-.402-.227-.783-.335-1.121-.336"/></svg>