<svg xmlns="http://www.w3.org/2000/svg" width="467.2" height="467.167" viewBox="266.4 166.4 467.2 467.167"><path d="M665.167 234.833C621.066 190.7 562.4 166.4 500 166.4s-121.066 24.3-165.167 68.434C290.7 278.934 266.4 337.6 266.4 400c0 62.4 24.3 121.066 68.433 165.167C378.934 609.3 437.6 633.566 500 633.566c62.4 0 121.066-24.3 165.167-68.399C709.3 521.033 733.6 462.4 733.6 400c0-62.4-24.3-121.066-68.433-165.167zm-6.934 310.2l-60.2-60.2c42.167-48.733 42.167-120.966 0-169.7l60.2-60.2C694.7 294.667 714.9 345.733 714.9 400c.034 54.267-20.167 105.333-56.667 145.033zM500 511.6c-29.8 0-57.833-11.6-78.934-32.699-43.533-43.534-43.533-114.334 0-157.834C442.167 300 470.2 288.4 500 288.4s57.833 11.6 78.934 32.667c43.5 43.534 43.5 114.334 0 157.834C557.833 500 529.8 511.6 500 511.6zm145.033-269.867L584.866 301.9c-23.633-20.5-53.233-32.2-84.866-32.2-31.634 0-61.2 11.7-84.867 32.2l-60.166-60.133C394.7 205.3 445.733 185.1 500 185.1s105.333 20.167 145.033 56.633zm-303.3 13.234l60.2 60.2c-42.167 48.733-42.167 120.966 0 169.7l-60.2 60.2c-36.467-39.733-56.667-90.767-56.667-145.033 0-54.301 20.201-105.367 56.667-145.067zM500 614.934c-54.267 0-105.333-20.2-145.033-56.667l60.166-60.167c23.667 20.5 53.234 32.2 84.867 32.2s61.233-11.7 84.866-32.2l60.167 60.167c-39.7 36.466-90.766 56.667-145.033 56.667z"/><text transform="translate(100 1300)" font-family="'HelveticaNeue-Bold'" font-size="166.667">Created by AlePio</text><text transform="translate(100 1466.656)" font-family="'HelveticaNeue-Bold'" font-size="166.667">from the Noun Project</text></svg>