<svg xmlns="http://www.w3.org/2000/svg" width="37" height="48" viewBox="0 0 37 48"><defs><style>.cls-1{fill:#777;fill-rule:evenodd}</style></defs><path id="Rounded_Rectangle_1" data-name="Rounded Rectangle 1" class="cls-1" d="M921 5804h-29a4 4 0 0 1-4-4v-22.22a3.818 3.818 0 0 1 4-3.78h3v-8a10 10 0 0 1 10-10h3a10 10 0 0 1 10 10v8h3a3.818 3.818 0 0 1 4 3.78V5800a4 4 0 0 1-4 4zm-5-37.11c0-4.91-3.7-8.89-8.261-8.89h-2.478c-4.562 0-8.261 3.98-8.261 8.89v7.11h19v-7.11zm7 12.39c-.125-3.17-.285-3.22-3.568-3.28h-25.864c-3.471-.06-3.443.55-3.568 3.28v19.25c.062 3.04.035 3.47 3.568 3.47h25.864c3.471-.06 3.5.07 3.568-3.47v-19.25zm-16 8.54v7.18h-2v-7.18a3 3 0 1 1 2 0z" transform="translate(-888 -5756)"/></svg>