<svg xmlns="http://www.w3.org/2000/svg" width="11" height="14" viewBox="0 0 11 14"><defs><style>.cls-1{fill-rule:evenodd}</style></defs><path id="Rounded_Rectangle_1" data-name="Rounded Rectangle 1" class="cls-1" d="M854 5788h-7a2 2 0 0 1-2-2v-5a2 2 0 0 1 2-2h7a2 2 0 0 1 2 2v5a2 2 0 0 1-2 2zm1-6c-.031-1.89-.145-2-2-2h-5c-1.873 0-1.953.25-2 2v3c-.031 1.7.146 1.94 2 2h5c1.886 0 2-.43 2-2v-3zm-4 1.9v2.1h-1v-2.1a1.526 1.526 0 0 1-1-1.4c-.031-.84.483-1.7 2-1.5a1.423 1.423 0 0 1 1 1.5 1.513 1.513 0 0 1-1 1.4zm0-8.9c-2.657-.27-2.906 2.13-3 4h-1c0-1.93.723-5.04 3.5-5 3.026.05 3.5 3.07 3.5 5h-1c.062-2.43-.993-3.9-2-4z" transform="translate(-845 -5774)"/></svg>