<svg xmlns="http://www.w3.org/2000/svg" width="168" height="36" viewBox="0 0 168 36"><path fill-rule="evenodd" clip-rule="evenodd" fill="#FFF" d="M162.483 34.913a5.43 5.43 0 1 1 0-10.858 5.43 5.43 0 0 1 0 10.858zm.727-6.68l-1.839-1.251v5.006l1.92-1.252 1.92-1.251-2.001-1.252zm-19.204-13.68l-7.552 20.325h-4.561l-7.553-20.325v20.325h-10.239V1.071h14.142l5.93 16.219 5.93-16.219h14.142v33.807h-10.238V14.553zM92.057 35.487c-10.441 0-18.5-7.096-18.5-17.487 0-10.391 8.059-17.487 18.5-17.487 10.442 0 18.501 7.096 18.501 17.487-.001 10.39-8.06 17.487-18.501 17.487zm0-25.952c-4.916 0-8.11 3.751-8.11 8.465s3.193 8.464 8.11 8.464 8.11-3.75 8.11-8.464c-.001-4.714-3.194-8.465-8.11-8.465zM51.989 34.879H37.07V1.071h14.868c10.644 0 18.551 6.082 18.551 16.878s-7.907 16.93-18.5 16.93zm0-24.887h-4.917v15.965h4.866c5.119 0 8.161-3.75 8.161-8.008 0-4.562-2.636-7.957-8.11-7.957zM.09.938h33.989v33.989H.09V.938zm20.9 25.026h3.799l5.484-14.233h-3.457L22.89 22.679l-3.949-10.948h-3.456l5.505 14.233zM3.704 14.399h4.161v11.566h3.052V14.399h4.139v-2.667H3.704v2.667z"/></svg>