<svg xmlns="http://www.w3.org/2000/svg" width="716.617" height="719.84" viewBox="141.691 40.16 716.617 719.84"><path d="M382.616 324.48s2.6 31.792 9.76 58.328c6.704 24.84 47.736 81.4 98.336 83.144 3.064.104 14.384.063 16.896.04 51.367-.521 93.239-58.057 100.016-83.176 7.16-26.536 9.76-58.328 9.76-58.328 8.16 2.656 19.136 1.504 22.977-8.232 4.903-12.424 14.567-78.016 4.743-85.432-2.359-1.784-5.319-2.136-8.447-1.688-1.969-74.872 15.271-115.08-46.456-139.216-7.616-49.872-75.072-48.248-88.648-49.76-.16-.088-4.968-.168-5.496-.16-160.377 4.592-130.769 115.024-132.713 189.12-3.128-.448-6.088-.096-8.456 1.688-9.832 7.416-.168 73 4.744 85.432 3.856 9.736 14.832 10.888 22.984 8.24zm117.008 378.936h.768c16.872-26.72 33.288-61.376 47.128-96.032-7.016-29.504-18.264-55.128-24.52-68.096 5.384-9.896 17.672-20.304 20.016-29.776 2.456-9.896-2.712-16.615-10.56-22.912-3.248-2.6-8.544-3.632-12.272-1.808l-13.416 6.032c-3.735 1.832-9.792 1.832-13.527 0l-13.416-6.024c-3.729-1.832-9.017-.8-12.272 1.809-7.855 6.296-13.023 13.016-10.576 22.911 2.345 9.473 14.648 19.881 20.024 29.776-6.256 12.976-17.504 38.576-24.52 68.08 13.855 34.648 30.263 69.32 47.143 96.04z"/><path d="M858.056 733.448l-23.96-143.48c-4.823-19.191-23.96-40.456-42.536-47.248L669.832 496s-20.736-9.064-26.992-14.296l-20.664-17.32c-6.264-5.231-15-6.504-15.088 3v1.024c4.584 32.647-53.128 205.16-106.688 264.016l-.792-.023C446.04 673.52 388.352 501.056 392.944 468.408l-.009-1.024c-.096-9.504-8.832-8.231-15.088-3l-20.664 17.32c-6.271 5.231-27 14.296-27 14.296h-.008l-121.728 46.72c-18.584 6.8-37.72 28.057-42.536 47.248l-23.968 143.48v-.008c-2.024 14.663 8.344 26.56 23.152 26.56h669.816c14.801 0 25.169-11.888 23.145-26.552z"/><text transform="translate(100 920)" font-family="'HelveticaNeue-Bold'" font-size="40">Created by David</text><text transform="translate(100 960)" font-family="'HelveticaNeue-Bold'" font-size="40">from the Noun Project</text></svg>