<svg xmlns="http://www.w3.org/2000/svg" fill="#fff" viewBox="0 0 21.06 18.031"><path d="M18.93 8.483l1.96 1.958a.509.509 0 0 1 0 .722l-.71.707a.507.507 0 0 1-.72 0L17.5 9.913l-1.96 1.957a.507.507 0 0 1-.72 0l-.71-.707a.509.509 0 0 1 0-.722l1.96-1.957-1.91-1.907a.509.509 0 0 1 0-.722l.71-.707a.507.507 0 0 1 .72 0l1.91 1.906 1.91-1.906a.507.507 0 0 1 .72 0l.71.707a.509.509 0 0 1 0 .722zm-7.45 9.561h-1a1.472 1.472 0 0 1-1.2-.65c-1.18-.894-3.49-3.349-4.3-3.349h-3a1.992 1.992 0 0 1-1.99-2v-6.04a1.992 1.992 0 0 1 1.99-2h3c.81 0 3.12-2.455 4.3-3.349a1.473 1.473 0 0 1 1.2-.651h1c.83 0 1.5.171 1.5 1v16.026c0 .821-.67 1.013-1.5 1.013z"/></svg>