<svg xmlns="http://www.w3.org/2000/svg" width="14" height="14" viewBox="0 0 14 14"><defs><style>.cls-1{fill:#777;fill-rule:evenodd}</style></defs><path id="Rectangle_11_copy_3" data-name="Rectangle 11 copy 3" class="cls-1" d="M845 5809a7 7 0 0 1-6.858-5.59A7.1 7.1 0 0 1 838 5802a7 7 0 0 1 7-7 7.289 7.289 0 0 1 1.331.13c.268.06.519.15.775.23a3.927 3.927 0 0 1 .472.14 6.566 6.566 0 0 1 .937.48c.066.04.137.07.2.11.145.09.283.19.42.29a5.584 5.584 0 0 1 .591.49c.125.11.248.23.364.35.047.05.086.11.131.16a7.225 7.225 0 0 1 .654.84 6.78 6.78 0 0 1 .409.75c.061.13.133.25.187.38a7.236 7.236 0 0 1 .383 1.23v.01A7.007 7.007 0 0 1 845 5809zm0-13a6 6 0 0 0 0 12 5.9 5.9 0 0 0 5.778-6.03A5.716 5.716 0 0 0 845 5796zm1.367 6.12a2.949 2.949 0 0 0-.755.85 2.374 2.374 0 0 0-.172 1.02l-.986.01a2.213 2.213 0 0 1 .114-1.25 3.472 3.472 0 0 1 .9-1.08l.484-.42a1.867 1.867 0 0 0 .351-.38 1.289 1.289 0 0 0-.112-1.64 1.519 1.519 0 0 0-1.171-.39 1.47 1.47 0 0 0-1.4.67 2.307 2.307 0 0 0-.248 1.07H842.3a2.458 2.458 0 0 1 .739-1.87 3.274 3.274 0 0 1 3.939-.1 1.925 1.925 0 0 1 .718 1.54 1.54 1.54 0 0 1-.264.93 8.188 8.188 0 0 1-1.065 1.04zm-2.679-4.5s-.081.07-.141.13zm1.854 8.38h-1.088v-1l1.088.02v.98z" transform="translate(-838 -5795)"/></svg>