<svg xmlns="http://www.w3.org/2000/svg" width="31" height="23" viewBox="0 0 31 23"><title>Rectangle 1</title><defs><clipPath id="a"><path d="M357 200h25a3 3 0 0 1 3 3v17a3 3 0 0 1-3 3h-25a3 3 0 0 1-3-3v-17a3 3 0 0 1 3-3z" fill="#fff"/></clipPath><clipPath id="b"><path d="M359.045 216c1.13 0 2.046.895 2.046 2s-.916 2-2.046 2c-1.129 0-2.045-.895-2.045-2s.916-2 2.045-2z" fill="#fff"/></clipPath><clipPath id="c"><path d="M363.955 216c1.129 0 2.045.895 2.045 2s-.916 2-2.045 2c-1.13 0-2.046-.895-2.046-2s.916-2 2.046-2z" fill="#fff"/></clipPath><clipPath id="d"><path d="M366 214v-1h3v1z" fill="#fff"/></clipPath><clipPath id="e"><path d="M370 214v-1h3v1z" fill="#fff"/></clipPath><clipPath id="f"><path d="M355 207v-2h30v2z" fill="#fff"/></clipPath><clipPath id="g"><path d="M355 211v-2h30v2z" fill="#fff"/></clipPath><clipPath id="h"><path d="M374 214v-1h3v1z" fill="#fff"/></clipPath><clipPath id="i"><path d="M378 214v-1h3v1z" fill="#fff"/></clipPath></defs><path d="M357 200h25a3 3 0 0 1 3 3v17a3 3 0 0 1-3 3h-25a3 3 0 0 1-3-3v-17a3 3 0 0 1 3-3z" fill-opacity="0" fill="#fff" stroke="currentColor!important" stroke-miterlimit="50" stroke-width="4" clip-path="url(&amp;quot;#a&amp;quot;)" transform="translate(-354 -200)"/><path d="M359.045 216c1.13 0 2.046.895 2.046 2s-.916 2-2.046 2c-1.129 0-2.045-.895-2.045-2s.916-2 2.045-2z" fill-opacity="0" fill="#fff" stroke="currentColor!important" stroke-miterlimit="50" stroke-width="2" clip-path="url(&amp;quot;#b&amp;quot;)" transform="translate(-354 -200)"/><path d="M363.955 216c1.129 0 2.045.895 2.045 2s-.916 2-2.045 2c-1.13 0-2.046-.895-2.046-2s.916-2 2.046-2z" fill-opacity="0" fill="#fff" stroke="currentColor!important" stroke-miterlimit="50" stroke-width="2" clip-path="url(&amp;quot;#c&amp;quot;)" transform="translate(-354 -200)"/><path d="M366 214v-1h3v1z" fill-opacity="0" fill="#fff" stroke="currentColor!important" stroke-miterlimit="50" stroke-width="2" clip-path="url(&amp;quot;#d&amp;quot;)" transform="translate(-354 -200)"/><path d="M370 214v-1h3v1z" fill-opacity="0" fill="#fff" stroke="currentColor!important" stroke-miterlimit="50" stroke-width="2" clip-path="url(&amp;quot;#e&amp;quot;)" transform="translate(-354 -200)"/><path d="M355 207v-2h30v2z" fill-opacity="0" fill="#fff" stroke="currentColor!important" stroke-miterlimit="50" stroke-width="4" clip-path="url(&amp;quot;#f&amp;quot;)" transform="translate(-354 -200)"/><path d="M355 211v-2h30v2z" fill-opacity="0" fill="#fff" stroke="currentColor!important" stroke-miterlimit="50" stroke-width="4" clip-path="url(&amp;quot;#g&amp;quot;)" transform="translate(-354 -200)"/><path d="M374 214v-1h3v1z" fill-opacity="0" fill="#fff" stroke="currentColor!important" stroke-miterlimit="50" stroke-width="2" clip-path="url(&amp;quot;#h&amp;quot;)" transform="translate(-354 -200)"/><path d="M378 214v-1h3v1z" fill-opacity="0" fill="#fff" stroke="currentColor!important" stroke-miterlimit="50" stroke-width="2" clip-path="url(&amp;quot;#i&amp;quot;)" transform="translate(-354 -200)"/></svg>