<svg xmlns="http://www.w3.org/2000/svg" width="55" height="55.5" fill="#fff" viewBox="0 0 55 55.5"><path d="M54.57 17.18l-2.97 2.88 2.97 2.87a1.345 1.345 0 0 1 .16 1.74 1.02 1.02 0 0 1-1.55.06l-3.19-3.1-3.19 3.09a1.017 1.017 0 0 1-1.56-.06 1.332 1.332 0 0 1 .16-1.73l2.96-2.88-2.93-2.85a1.332 1.332 0 0 1-.16-1.73 1.02 1.02 0 0 1 1.55-.06l3.16 3.07 3.19-3.1a1.024 1.024 0 0 1 1.56.06 1.345 1.345 0 0 1-.16 1.74zm-4.53-4.12a.926.926 0 0 1-.98-.48L49 2.39 30 7.81v24.12l18.81 5.43.13-10.63a.989.989 0 0 1 1.01-.52 1.156 1.156 0 0 1 1.05.85v11a.832.832 0 0 1-.07.24 1 1 0 0 1-.03.7 1.03 1.03 0 0 1-1.13.71l-.36-.11a1.234 1.234 0 0 1-.38-.1L30 34v.06h-9l5.5 16.33a3.6 3.6 0 0 1-2.17 4.58l-.96.34a3.587 3.587 0 0 1-4.58-2.17L12 34.06h1a13 13 0 0 1-13-13v-2a13 13 0 0 1 13-13h15.87L49 .06a1.926 1.926 0 0 1 1 0 .843.843 0 0 1 .93.47l.01.46a1.135 1.135 0 0 1 0 .45l.06 11.2a.836.836 0 0 1-.96.42zM20.75 52.5a1.5 1.5 0 0 0 1.92.91l1.03-.37a1.5 1.5 0 0 0 .91-1.92l-6.09-17.06h-4.35zM28 8.06H14a12 12 0 0 0 0 24h14v-24z"/></svg>