<svg xmlns="http://www.w3.org/2000/svg" width="19.5" height="19.53" fill="#fff" viewBox="0 0 19.5 19.53"><path d="M18.117 7.95l-5.054 5.07-.079.06c0 .01 0 .01-.006.01l-5.044 5.06a4.658 4.658 0 0 1-6.575-6.6l5.029-5.04c.031-.03.052-.07.084-.1l5.055-5.07a4.667 4.667 0 1 1 6.59 6.61zM7.728 7.81a2.791 2.791 0 1 0 3.935.01 2.776 2.776 0 0 0-3.935-.01zm-5.054 9.02a2.788 2.788 0 0 0 3.945 0l2.5-2.5a4.594 4.594 0 0 1-3.946-3.96l-2.5 2.5a2.808 2.808 0 0 0 .001 3.96zM16.799 2.66a2.8 2.8 0 0 0-3.954 0l-2.523 2.53a4.644 4.644 0 0 1 2.656 1.31 4.581 4.581 0 0 1 1.3 2.66l2.521-2.53a2.815 2.815 0 0 0 0-3.97z"/></svg>