<svg xmlns="http://www.w3.org/2000/svg" width="26" height="27.94" viewBox="0 0 26 27.94"><defs><style>.cls-1{fill:#fff;fill-rule:evenodd}</style></defs><path id="Ellipse_1_copy_2" data-name="Ellipse 1 copy 2" class="cls-1" d="M912 5974.95h-2c-.028-5.62-4.939-9.95-11-9.95s-10.965 4.34-11 9.95h-2a11.689 11.689 0 0 1 7.47-10.85c-2.476-1.04-4.184-3.14-4.47-7.1-.473-6.54 4.748-10 10-10s10.125 3.5 10 10a7.55 7.55 0 0 1-4.8 6.96 11.72 11.72 0 0 1 7.8 10.99zm-4.992-18.56c0-4.08-3.585-7.39-8.008-7.39s-8.008 3.31-8.008 7.39 3.585 6.61 8.008 6.61 8.008-2.53 8.008-6.61z" transform="translate(-886 -5947)"/></svg>