<svg xmlns="http://www.w3.org/2000/svg" width="210" height="120" viewBox="0 0 210 120"><path fill="#0D587B" d="M16.978 107.999H-.017V5.994h.023l-.002-.018A6.016 6.016 0 0 1 6.021-.041c.119 0 .23.028.347.035h203.611v108.005H16.978z"/><path fill="#0F6991" d="M7.984 3.995h197.995V112H7.984z"/><path fill="#1376A5" d="M3.983 7.995h197.995V116H3.983z"/><path fill="#249ED9" d="M112.393 63.044a3.916 3.916 0 0 0-.745-.575L92.154 43.096a3.997 3.997 0 0 0-5.656 0 3.997 3.997 0 0 0 0 5.656l17.309 17.202-17.309 17.2a4 4 0 1 0 5.656 5.658l19.496-19.377a4.03 4.03 0 0 0 .743-.571 3.988 3.988 0 0 0 1.164-2.911 3.988 3.988 0 0 0-1.164-2.909zM197.978 120H5.915v-.039a6.007 6.007 0 0 1-5.905-5.938h-.026V6.043H.01a6.006 6.006 0 0 0 5.905 5.938v.014h192.063V120z"/></svg>