<svg xmlns="http://www.w3.org/2000/svg" width="210" height="312" viewBox="0 0 210 312"><path fill-rule="evenodd" clip-rule="evenodd" fill="#09577A" d="M16.978 300.02H-.017V5.994h.023l-.002-.018A6.016 6.016 0 0 1 6.021-.041c.119 0 .23.028.347.035h203.611V300.02H16.978z"/><path fill-rule="evenodd" clip-rule="evenodd" fill="#0D6890" d="M7.984 3.995h197.995v300.026H7.984z"/><path fill-rule="evenodd" clip-rule="evenodd" fill="#1076A4" d="M3.983 7.995h197.995v300.026H3.983z"/><path fill-rule="evenodd" clip-rule="evenodd" fill="#1A9FDD" d="M112.393 159.044a3.916 3.916 0 0 0-.745-.575l-19.494-19.373a3.997 3.997 0 0 0-5.656 0 3.997 3.997 0 0 0 0 5.656l17.309 17.202-17.309 17.2a4 4 0 1 0 5.656 5.658l19.496-19.377a4.03 4.03 0 0 0 .743-.571 3.988 3.988 0 0 0 1.164-2.911 3.988 3.988 0 0 0-1.164-2.909zm85.585 152.977H5.915v-.039a6.007 6.007 0 0 1-5.905-5.938h-.026V6.043H.01a6.006 6.006 0 0 0 5.905 5.938v.014h192.063v300.026z"/></svg>