<svg xmlns="http://www.w3.org/2000/svg" width="20.97" height="18.031" fill="#ccc" viewBox="0 0 20.97 18.031"><path d="M13.99 17.763v-1.974a7.075 7.075 0 0 0 0-13.558V.257a8.984 8.984 0 0 1 0 17.506zm-2.51.281h-1a1.472 1.472 0 0 1-1.2-.65c-1.18-.894-3.49-3.349-4.3-3.349h-3a1.992 1.992 0 0 1-1.99-2v-6.04a1.992 1.992 0 0 1 1.99-2h3c.81 0 3.12-2.455 4.3-3.349a1.473 1.473 0 0 1 1.2-.651h1c.83 0 1.5.171 1.5 1v16.026c0 .821-.67 1.013-1.5 1.013zm6.49-9.034a5.994 5.994 0 0 1-3.98 5.627v-2.151a4.011 4.011 0 0 0 0-6.952V3.383a5.994 5.994 0 0 1 3.98 5.627z"/></svg>