<svg version="1" xmlns="http://www.w3.org/2000/svg" width="21.333" height="21.333" viewBox="0 0 16.000000 16.000000"><path d="M0 8v8h16V0H0v8zm14.133-2.066V10H1.867V1.867h12.266v4.067zm-9.666 4.92c1.36.573 1.293 2.506-.094 3.226-.226.12-.773.187-1.44.187H1.867v-3.6h1.066c.64 0 1.267.08 1.534.186zm4.16.08c.613.373.893.866.893 1.6 0 2.253-3.307 2.546-3.733.333-.147-.787.426-1.84 1.146-2.107.453-.16 1.28-.08 1.693.173zm2.96.226c.466 1.28.4 1.253.733.373l.306-.8.747-.04.76-.04v3.614h-1.067l-.013-1.04V12.2l-.373 1c-.28.76-.427 1.013-.64 1.04-.24.04-.334-.107-.614-.933l-.333-.974-.013.96-.014.974H10v-3.6h.706c.694 0 .707.013.88.493z"/><path d="M3.2 3.787c0 .44.013.453.733.547l.734.08v4.12h1.2v-4.28l.706.04.693.04.04-.507.04-.493H3.2v.453zm4.4-.32c0 .107 1.293 3.56 1.8 4.827.08.186.253.24.8.24h.693l.947-2.507c.533-1.387.96-2.547.96-2.6 0-.053-.267-.093-.587-.093h-.587l-.373 1.026c-.2.574-.52 1.48-.72 2.027l-.36.987-.707-2.014-.706-2.026h-.574c-.32 0-.586.053-.586.133zm-4.667 9c0 .853 0 .866.374.866.573 0 .96-.346.96-.853 0-.547-.347-.88-.907-.88h-.427v.867zm4.16-.56c-.16.173-.293.44-.293.613 0 .333.56.947.866.947.294 0 .867-.6.867-.907 0-.387-.507-.96-.853-.96-.16 0-.427.133-.587.307z"/></svg>